<?xml version="1.0" standalone="no"?><!DOCTYPE svg PUBLIC "-//W3C//DTD SVG 1.1//EN" "http://www.w3.org/Graphics/SVG/1.1/DTD/svg11.dtd"><svg t="1641473826046" class="icon" viewBox="0 0 1030 1024" version="1.1" xmlns="http://www.w3.org/2000/svg" p-id="3284" xmlns:xlink="http://www.w3.org/1999/xlink" width="201.171875" height="200"><defs><style type="text/css"></style></defs><path d="M476.049369 589.193846c0-28.038306-22.303198-38.588073-49.279447-38.588072H41.951253a39.756335 39.756335 0 1 0 0 79.477268h299.18147L11.434814 958.506482a38.092446 38.092446 0 0 0 53.9879 53.775489l332.034434-330.759966v302.72166a39.897943 39.897943 0 0 0 79.795886 0V589.193846m511.557476-195.170683h-299.358479l329.697908-328.42344A38.092446 38.092446 0 0 0 965.16204 11.824235l-330.866171 330.759966V39.862541a39.897943 39.897943 0 0 0-79.795886 0v392.713293c0 1.168263 1.168263 1.168263 1.168262 2.336526a41.774244 41.774244 0 0 0 10.620571 28.038306 35.401901 35.401901 0 0 0 36.357753 9.346102h384.818669a39.47312 39.47312 0 0 0 39.897943-39.720934 38.942092 38.942092 0 0 0-38.588073-38.552671z" p-id="3285"></path></svg>