<?xml version="1.0" standalone="no"?><!DOCTYPE svg PUBLIC "-//W3C//DTD SVG 1.1//EN" "http://www.w3.org/Graphics/SVG/1.1/DTD/svg11.dtd"><svg t="1655562889133" class="icon" viewBox="0 0 5586 1024" version="1.1" xmlns="http://www.w3.org/2000/svg" p-id="2011" xmlns:xlink="http://www.w3.org/1999/xlink" width="1091.015625" height="200"><defs></defs><path d="M0 512c0 210.503979 139.883289 391.129973 339.522546 467.183024 82.843501 28.519894 173.835544 44.816976 270.259947 44.816976 95.066313 0 186.058355-16.297082 267.543767-43.458886 199.639257-74.69496 340.880637-256.679045 340.880637-467.183024v-1.35809c0-211.862069-141.241379-392.488064-340.880637-467.183024C794.482759 16.297082 703.490716 0 608.424403 0 512 0 421.007958 16.297082 339.522546 44.816976 139.883289 119.511936 0 300.137931 0 512z" fill="#9D2133" p-id="2012"></path><path d="M551.384615 556.816976c-135.809019 21.729443-240.381963 134.450928-249.888594 274.334218l110.005305 1.35809c5.432361-84.201592 63.830239-153.464191 142.59947-173.835544v195.564987h110.005305V658.67374c77.411141 21.729443 137.167109 90.992042 141.241379 173.835544l110.005305-1.35809C905.846154 692.625995 801.27321 578.546419 665.464191 556.816976v-90.992042c135.809019-21.729443 240.381963-134.450928 248.530504-272.976128l-110.005305-1.35809c-4.074271 82.843501-63.830239 152.106101-141.241379 172.477454V169.761273h-110.005305v195.564987c-78.769231-20.371353-137.167109-89.633952-141.24138-172.477454l-110.005305 1.358091c8.148541 138.525199 114.079576 252.604775 249.888594 272.976127V556.816976z" fill="#FFFFFF" p-id="2013"></path><path d="M2304.679045 192.848806v89.633953h229.517241v571.755968h206.429709V282.482759h161.612732c92.350133 1.35809 99.140584-88.275862 99.140583-88.275862l-696.700265-1.358091zM2118.62069 191.490716c-76.05305 1.35809-108.647215 39.384615-129.018568 77.411141l-167.045093 358.535809h-2.71618l-200.997348-435.94695H1412.413793v662.748011h115.437666V385.697613L1751.93634 852.880637h80.12732l217.29443-465.824934v465.824934H2227.267905V191.490716h-108.647215zM3541.899204 540.519894c92.350133-23.087533 149.38992-88.275862 150.748011-164.328913 0-111.363395-101.856764-181.984085-291.98939-181.984084h-342.238727v660.03183H3259.416446l1.35809-570.397878h96.424403c114.079576 0 142.599469 38.026525 146.67374 89.633952 4.074271 43.458886-47.533156 95.066313-105.931034 105.931035l1.35809 1.35809c-17.655172 4.074271-44.816976 10.864721-78.769231 13.580902-1.35809 0-5.432361 1.35809-2.71618 8.148541 59.755968 107.289125 199.639257 300.137931 199.639257 300.137931 27.161804 27.161804 38.026525 52.965517 116.795756 54.323607l135.809018-1.35809c-1.35809-2.71618-150.748011-186.058355-228.159151-315.076923M5026.291777 359.893899s-20.371353-82.843501-52.965517-129.018567c0 0-35.310345 70.62069-96.424403 129.018567h149.38992z m305.570292-100.498674h-81.485411v50.249337h81.485411v-50.249337z m-8.148541 535.087534c13.580902-17.655172 28.519894-38.026525 43.458886-62.472149-27.161804-82.843501-33.952255-225.442971-33.952255-381.623342H5079.257294l-12.222811 10.864721v38.026526h-77.411141v85.559681h77.411141v38.026525h-77.411141v135.809019c12.222812-40.742706 29.877984-88.275862 35.310345-104.572944 0-2.71618 2.71618-5.432361 5.432361-5.432361 1.35809 0 2.71618 0 4.07427 2.71618l62.472149 36.668435h224.08488V624.721485h-73.33687v66.54642h73.33687v36.668435h-73.33687v67.904509l76.053051-1.35809z m65.188329-10.864722c-57.039788 59.755968-111.363395 100.498674-143.95756 110.005305-1.35809 0-6.790451-2.71618-6.790451-6.790451 0-2.71618 6.790451-6.790451 6.790451-6.790451 10.864721-10.864721 27.161804-27.161804 46.175066-48.891246h-214.578249v-36.668435h71.97878v-67.90451h-73.33687v-38.026525h73.33687v-66.546419H5079.257294c-25.803714 32.594164-67.904509 81.485411-89.633952 100.498674v35.310345c67.904509-2.71618 100.498674-2.71618 114.079576-2.716181 5.432361 0 6.790451 6.790451 2.71618 8.148541-191.490716 92.350133-263.469496 115.437666-263.469496 115.437666s-13.580902 5.432361-16.297082-6.790451c-1.35809-6.790451-36.668435-88.275862-36.668435-93.708223-1.35809-6.790451-1.35809-10.864721 5.432361-12.222811 33.952255-1.35809 62.472149-2.71618 89.633952-4.074271v-57.039788l-42.100796 27.161804c-1.35809 1.35809-1.35809 1.35809-4.07427 1.35809-2.71618 0-5.432361-2.71618-5.432361-5.43236-4.074271-23.087533-23.087533-114.079576-43.458886-160.254642v-2.716181c0-2.71618 2.71618-5.432361 5.432361-5.432361 1.35809 0 1.35809 0 2.71618 1.358091 8.148541 2.71618 52.965517 16.297082 85.559682 59.755968v-100.498674h-90.992043v-38.026525h90.992043v-85.559682H4834.801061c-20.371353 14.938992-35.310345 24.445623-39.384615 27.161804-1.35809 1.35809-2.71618 1.35809-5.432361 1.35809s-5.432361-2.71618-5.432361-5.432361c0-1.35809 1.35809-2.71618 2.716181-4.07427 66.546419-96.424403 88.275862-263.469496 88.275862-263.469496l115.437665 27.161804c-4.074271 19.013263-4.074271 14.938992-10.864721 31.236074 24.445623 9.506631 115.437666 52.965517 118.153846 96.424403h48.891247v-50.249337h-77.411141v-38.026525h77.411141v-61.114058h103.214854v61.114058h82.843501c0-20.371353 1.35809-40.742706 1.35809-61.114058h92.350133s-1.35809 65.188329 1.35809 150.74801h61.114059c-13.580902-62.472149-54.323607-120.870027-54.323608-120.870026-1.35809-2.71618 0-10.864721 21.729443-1.358091 35.310345 14.938992 77.411141 40.742706 99.140584 63.830239 10.864721 9.506631 8.148541 16.297082 1.35809 24.445624-23.087533 23.087533-35.310345 33.952255-35.310345 33.952254h31.236074v39.384616h-123.586207c0 57.039788-1.35809 164.328912 6.790451 243.098143 20.371353-55.681698 39.384615-122.228117 51.607427-199.639258 1.35809-9.506631 5.432361-8.148541 8.148541-8.148541 0 0 80.127321 25.803714 85.559682 28.519894 8.148541 2.71618 4.074271 10.864721 4.074271 10.864722-21.729443 103.214854-69.262599 198.281167-123.586207 274.334217 24.445623 70.62069 44.816976 86.917772 67.904509 48.891247 10.864721-16.297082 32.594164-70.62069 32.594165-70.62069 1.35809-2.71618 1.35809-4.074271 2.71618-4.07427 2.71618 0 4.074271 4.074271 4.07427 4.07427 23.087533 224.084881-80.127321 202.355438-80.12732 202.355438-42.100796 2.71618-77.411141-51.607427-100.498674-93.708223z" fill="#07224D" p-id="2014"></path><path d="M5244.944297 554.100796h-154.822281V385.697613h213.220159v112.721485c1.35809 0 6.790451 55.681698-58.397878 55.681698z m-29.877984-131.734748h-36.668435v92.350132h36.668435v-92.350132zM4245.38992 535.087533c43.458886-27.161804 76.05305-54.323607 105.931035-112.721485h95.066313c27.161804 44.816976 50.249337 86.917772 74.69496 112.721485h-275.692308z m74.694961-256.679045h145.31565v90.992043h-145.31565v-90.992043zM4468.116711 666.822281h-157.538462v-88.275862H4468.116711v88.275862z m0 43.458886h74.69496c23.087533 0 42.100796-27.161804 42.100796-50.249337v-84.201591c17.655172 10.864721 33.952255 19.013263 46.175066 23.087533 10.864721 4.074271 16.297082 8.148541 19.013263 4.07427 4.074271-5.432361 28.519894-44.816976 42.100796-59.755968 6.790451-6.790451 13.580902-12.222812 16.297082-16.297082 8.148541-6.790451 1.35809-8.148541 1.35809-8.148541-85.559682-12.222812-149.38992-46.175066-191.490716-95.066313H4685.411141v-52.965517h-107.289125v-90.992043h97.782493v-50.249337h-97.782493v-70.620689h-112.721485v70.620689h-145.31565v-70.620689h-112.721486v70.620689h-81.485411v50.249337h81.485411v90.992043h-104.572944v52.965517h131.734748l-16.297082 32.594164c-27.161804 48.891247-81.485411 99.140584-149.389921 152.106101-1.35809-14.938992-4.074271-48.891247-4.07427-51.607427 0-5.432361-4.074271-8.148541-4.074271-8.148541s-6.790451-2.71618-9.506631-4.074271c-4.074271-1.35809-4.074271 1.35809-4.074271 1.358091-20.371353 97.782493-74.69496 150.748011-153.464191 220.01061-6.790451 4.074271 0 9.506631-2.71618 5.43236 0 0 61.114058 101.856764 62.472149 105.931035 2.71618 2.71618 5.432361 2.71618 5.43236 2.71618 40.742706-47.533156 66.546419-85.559682 81.485411-122.228116 14.938992-35.310345 24.445623-80.127321 28.519894-137.167109 43.458886-13.580902 95.066313-40.742706 123.586207-51.607427v220.01061c0 35.310345 14.938992 58.397878 48.891247 71.97878s82.843501 21.729443 179.267904 21.729443c73.33687 0 124.944297-5.432361 157.538462-16.297083 31.236074-9.506631 46.175066-19.013263 59.755968-35.310344 32.594164-38.026525 24.445623-141.241379 24.445623-141.24138-36.668435 42.100796-62.472149 77.411141-104.572944 97.782494-28.519894 13.580902-73.33687 17.655172-126.302387 17.655172-52.965517 0-86.917772-1.35809-100.498674-4.07427-14.938992-4.074271-17.655172-13.580902-17.655172-31.236075v-59.755968H4468.116711zM3911.299735 176.551724c6.790451-4.074271 23.087533 1.35809 38.026525 2.716181 16.297082 2.71618 88.275862 20.371353 108.647215 33.952254 19.013263 13.580902 43.458886 24.445623 24.445623 54.323608-20.371353 29.877984-36.668435 46.175066-47.533156 52.965517-10.864721 6.790451-24.445623 4.074271-36.668435-20.371353-12.222812-23.087533-20.371353-40.742706-33.952255-55.681698-13.580902-16.297082-48.891247-52.965517-52.965517-58.397878s0-9.506631 0-9.506631z" fill="#07224D" p-id="2015"></path><path d="M3907.225464 368.04244c6.790451-2.71618 24.445623 0 40.742706 2.716181s92.350133 20.371353 112.721485 32.594164c20.371353 13.580902 46.175066 24.445623 25.803714 55.681698-20.371353 29.877984-39.384615 46.175066-50.249337 54.323607-10.864721 6.790451-24.445623 4.074271-38.026525-20.371353-12.222812-24.445623-21.729443-42.100796-35.310345-58.397878-14.938992-16.297082-51.607427-52.965517-55.681698-58.397878-4.074271-4.074271 0-8.148541 0-8.148541z" fill="#07224D" p-id="2016"></path></svg>