<?xml version="1.0" standalone="no"?><!DOCTYPE svg PUBLIC "-//W3C//DTD SVG 1.1//EN" "http://www.w3.org/Graphics/SVG/1.1/DTD/svg11.dtd"><svg t="1655562889133" class="icon" viewBox="0 0 1230 1020" version="1.1" xmlns="http://www.w3.org/2000/svg" p-id="2011" xmlns:xlink="http://www.w3.org/1999/xlink" width="200" height="180"><defs></defs><path d="M0 512c0 210.503979 139.883289 391.129973 339.522546 467.183024 82.843501 28.519894 173.835544 44.816976 270.259947 44.816976 95.066313 0 186.058355-16.297082 267.543767-43.458886 199.639257-74.69496 340.880637-256.679045 340.880637-467.183024v-1.35809c0-211.862069-141.241379-392.488064-340.880637-467.183024C794.482759 16.297082 703.490716 0 608.424403 0 512 0 421.007958 16.297082 339.522546 44.816976 139.883289 119.511936 0 300.137931 0 512z" fill="#9D2133" p-id="2012"></path><path d="M551.384615 556.816976c-135.809019 21.729443-240.381963 134.450928-249.888594 274.334218l110.005305 1.35809c5.432361-84.201592 63.830239-153.464191 142.59947-173.835544v195.564987h110.005305V658.67374c77.411141 21.729443 137.167109 90.992042 141.241379 173.835544l110.005305-1.35809C905.846154 692.625995 801.27321 578.546419 665.464191 556.816976v-90.992042c135.809019-21.729443 240.381963-134.450928 248.530504-272.976128l-110.005305-1.35809c-4.074271 82.843501-63.830239 152.106101-141.241379 172.477454V169.761273h-110.005305v195.564987c-78.769231-20.371353-137.167109-89.633952-141.24138-172.477454l-110.005305 1.358091c8.148541 138.525199 114.079576 252.604775 249.888594 272.976127V556.816976z" fill="#FFFFFF" p-id="2013"></path></svg>