<?xml version="1.0" standalone="no"?><!DOCTYPE svg PUBLIC "-//W3C//DTD SVG 1.1//EN" "http://www.w3.org/Graphics/SVG/1.1/DTD/svg11.dtd"><svg t="1654250479799" class="icon" viewBox="0 0 1024 1024" version="1.1" xmlns="http://www.w3.org/2000/svg" p-id="1577" xmlns:xlink="http://www.w3.org/1999/xlink" width="200" height="200"><defs></defs><path d="M509.66 949.27c-240.47 0-436.1-195.61-436.1-436.08s195.63-436.1 436.1-436.1c240.45 0 436.08 195.63 436.08 436.1S750.11 949.27 509.66 949.27z m0-785.01c-192.4 0-348.93 156.52-348.93 348.93 0 192.37 156.54 348.91 348.93 348.91s348.91-156.54 348.91-348.91c0-192.41-156.51-348.93-348.91-348.93z" p-id="1578"></path><path d="M514.05 591.93c-92.27 0-167.35-75.08-167.35-167.35s75.08-167.35 167.35-167.35S681.4 332.31 681.4 424.58s-75.08 167.35-167.35 167.35z m0-247.53c-44.22 0-80.18 35.96-80.18 80.18s35.96 80.18 80.18 80.18 80.18-35.96 80.18-80.18-35.96-80.18-80.18-80.18z" p-id="1579"></path><path d="M747.26 802.09C740.15 690.58 647.03 603.2 535.22 603.2h-53.26c-111.74 0-204.89 87.33-212.04 198.8l-86.99-5.62c10.09-157.18 141.45-280.35 299.03-280.35h53.26c157.67 0 289.01 123.21 299.03 280.52l-86.99 5.54z" p-id="1580"></path></svg>